<?xml version="1.0" encoding="UTF-8"?>
<!DOCTYPE svg PUBLIC "-//W3C//DTD SVG 1.1//EN" "http://www.w3.org/Graphics/SVG/1.1/DTD/svg11.dtd">
<!-- Creator: CorelDRAW X7 -->
<svg xmlns="http://www.w3.org/2000/svg" xml:space="preserve" width="300px" height="45px" version="1.1" style="shape-rendering:geometricPrecision; text-rendering:geometricPrecision; image-rendering:optimizeQuality; fill-rule:evenodd; clip-rule:evenodd"
viewBox="0 0 300 45"
 xmlns:xlink="http://www.w3.org/1999/xlink">
 <defs>
  <style type="text/css">
   <![CDATA[
    .fil0 {fill:#F8F8F8;fill-rule:nonzero}
   ]]>
  </style>
 </defs>
 <g id="Слой_x0020_1">
  <metadata id="CorelCorpID_0Corel-Layer"/>
  <path class="fil0" d="M68 7l-2 0 0 0c-2,0 -3,-1 -3,-2 0,-1 1,-1 1,-2 1,0 2,0 3,0l0 0 6 0c4,0 8,0 10,2 2,2 3,4 3,7 0,4 -2,8 -6,12 -2,2 -4,3 -7,4 -2,1 -5,1 -9,1l-2 0 0 1c-1,2 -2,3 -2,3 -1,1 -1,2 -2,2 -3,2 -5,3 -8,3 -3,0 -5,-1 -6,-2 -2,-1 -3,-2 -3,-4 0,-1 1,-2 1,-3 1,-1 2,-2 3,-2 2,-1 4,-2 6,-2l8 0 9 -18zm-4 18l1 0c5,0 8,-1 11,-4 1,-1 3,-3 3,-5 1,-1 2,-3 2,-4 0,-2 -1,-3 -2,-4 -1,-1 -3,-1 -5,-1l-10 18zm-7 4l-6 0c-3,0 -4,1 -4,3 0,0 0,1 1,1 1,1 1,1 2,1 1,0 3,-1 4,-1 1,-1 2,-2 3,-4z"/>
  <path id="1" class="fil0" d="M101 21l2 0c2,0 3,1 3,2 0,1 -1,1 -1,1 -1,1 -2,1 -3,1l-3 0c-1,0 -2,0 -2,-1 -1,1 -2,1 -3,1l-2 0c-2,0 -3,0 -4,-1 -1,-1 -2,-2 -2,-4 0,-2 1,-4 3,-5 2,-2 4,-3 6,-3 2,0 3,1 4,2 1,-1 2,-2 3,-2 1,0 1,1 2,1 0,0 0,1 0,1 0,0 0,1 0,1l0 1 -3 5zm-8 0l1 0c1,0 1,0 2,-1l1 -2c1,-1 1,-1 1,-1 0,-1 -1,-1 -1,-1 0,0 -1,0 -1,0 -1,0 -2,0 -3,1 -1,1 -2,2 -2,3 0,1 1,1 2,1z"/>
  <path id="2" class="fil0" d="M122 21l2 0c2,0 3,1 3,2 0,1 0,1 -1,1 -1,1 -2,1 -3,1l-4 0c-1,0 -2,0 -2,-1 -1,0 -1,-1 -1,-1 0,-1 0,-1 1,-2l1 -3c1,-1 1,-1 1,-1 0,-1 0,-1 -1,-1 0,0 0,0 -1,0 -1,0 -2,1 -3,2l-3 5c0,1 -2,2 -3,2 -1,0 -1,0 -1,0 -1,-1 -1,-1 -1,-1 0,-1 0,-1 0,-1l0 -1 5 -8c0,-1 1,-2 2,-2 1,0 2,1 3,2 1,-1 3,-2 4,-2 1,0 2,1 3,1 1,1 1,1 1,2 0,1 0,1 0,2l-2 4z"/>
  <path id="3" class="fil0" d="M133 21l3 0c1,0 2,1 2,2 0,1 0,1 -1,1 0,1 -1,1 -2,1l-3 0c-2,0 -3,0 -3,-1 -1,0 -1,-1 -1,-1 0,-1 0,-1 0,-2l3 -6 1 -1c0,-1 1,-2 3,-2 0,0 1,1 1,1 1,0 1,1 1,1 0,0 0,1 -1,2l-3 5zm3 -14c1,0 2,1 2,1 1,0 1,1 1,2 0,0 0,1 -1,1 0,1 -1,1 -2,1 -1,0 -1,0 -2,-1 0,0 -1,-1 -1,-1 0,-1 1,-2 1,-2 1,0 1,-1 2,-1z"/>
  <path id="4" class="fil0" d="M144 20c0,1 1,1 2,1l7 0c1,0 2,1 2,2 0,1 0,1 -1,1 0,1 -1,1 -2,1l-6 0c-2,0 -4,0 -5,-1 -1,-1 -2,-2 -2,-4 0,-2 1,-4 3,-5 2,-2 4,-3 6,-3 2,0 4,1 5,1 1,1 1,2 1,3 0,2 0,3 -2,4 -1,0 -2,0 -4,0l-4 0zm1 -3l2 0c2,0 3,0 3,-1 0,0 -1,0 -2,0 -1,0 -2,0 -3,1z"/>
  <path id="5" class="fil0" d="M162 21l2 0c2,0 2,1 2,2 0,1 0,1 -1,1 0,1 -1,1 -2,1l-4 0c-1,0 -2,0 -2,-1 -1,0 -1,-1 -1,-1 0,0 0,-1 0,-2l9 -16 0 0c1,-2 2,-2 3,-2 1,0 1,0 2,0 0,0 0,1 0,1 0,1 0,1 0,1l0 1 -8 15z"/>
  <path id="6" class="fil0" d="M203 20c1,0 1,0 1,0 0,0 0,0 0,1 0,0 0,1 -1,1 -2,1 -3,2 -5,3 -2,0 -4,0 -6,0 -3,0 -6,0 -8,-1 -2,-1 -4,-3 -6,-5 -1,-2 -1,-4 -1,-6 0,-2 0,-4 1,-6 2,-2 3,-3 6,-4 2,-1 5,-2 8,-2 2,0 3,0 5,1 2,0 3,1 4,1 1,1 1,1 1,1 0,1 0,1 0,2 0,0 0,0 0,0 0,0 0,1 0,1 1,0 1,0 1,1 0,0 -1,0 -1,0 0,0 -1,0 -1,0 0,0 0,-1 -1,-1 0,-1 -1,-2 -2,-3 -1,-1 -3,-1 -6,-1 -4,0 -6,1 -8,3 -2,1 -3,4 -3,7 0,3 1,6 3,8 2,2 5,3 8,3 1,0 3,0 5,-1 2,0 4,-1 5,-3 1,0 1,0 1,0z"/>
  <path id="7" class="fil0" d="M211 23c0,0 1,0 1,1 0,0 0,0 1,0 1,0 1,0 1,0 1,0 1,1 1,1 0,0 -1,0 -2,0 0,0 -1,0 -1,0 -1,0 -2,0 -2,0 -1,0 -1,0 -2,0 -1,0 -1,0 -2,0 -1,0 -1,0 -1,0 0,0 0,-1 0,-1 0,0 1,0 1,0 1,0 2,0 2,-1 0,0 0,0 0,-1l0 -17c0,-1 0,-1 0,-1 0,0 -1,0 -2,-1 0,0 -1,0 -1,0 0,0 0,0 0,0 0,-1 0,-1 1,-1 0,0 1,0 1,0 1,0 1,0 1,0 1,0 1,0 1,0 1,0 1,0 1,0 1,0 1,0 1,0 0,0 0,1 0,1l0 20zm11 0c0,0 0,0 0,1 0,0 1,0 2,0 0,0 1,0 1,0 0,0 0,1 0,1 0,0 0,0 0,0 -1,0 -1,0 -2,0 0,0 0,0 -1,0 -1,0 -1,0 -2,0 0,0 -1,0 -2,0 0,0 -1,0 -1,0 -1,0 -2,0 -2,0 0,0 0,-1 1,-1 0,0 0,0 1,0 1,0 1,0 1,0 0,-1 1,-1 1,-1 0,-1 0,-2 0,-3 0,-1 0,-2 0,-2 0,-1 -1,-1 -1,-2 0,0 -1,0 -2,0 0,0 -1,0 -2,1 -1,0 -1,0 -1,0 0,0 0,0 -1,0 0,0 0,0 0,0 0,-1 1,-2 2,-2 2,-1 3,-1 4,-1 1,0 1,0 2,0 1,1 1,1 2,2 0,0 0,1 0,3 0,0 0,1 0,2 0,1 0,1 0,2z"/>
  <path id="8" class="fil0" d="M239 19c0,0 1,0 1,-1 0,0 0,0 0,0 0,-1 -1,-2 -1,-2 -1,-1 -2,-1 -4,-1 -1,0 -2,0 -4,1 -1,1 -2,2 -2,4 0,1 1,2 2,3 2,1 3,1 5,1 1,0 2,0 4,-1 0,0 1,0 1,0 0,0 0,0 0,0 0,0 1,0 1,0 0,1 -1,1 -3,2 -1,0 -3,1 -4,1 -3,0 -5,-1 -7,-2 -1,-2 -2,-3 -2,-5 0,-1 1,-3 3,-4 1,-1 4,-2 6,-2 3,0 5,1 6,2 2,1 2,3 2,4 0,1 0,1 0,1 0,0 -1,0 -1,0l-10 0c0,0 -1,0 -1,-1 0,0 1,0 1,0l7 0z"/>
  <path id="9" class="fil0" d="M248 9c0,-1 0,-2 0,-3 1,-1 1,-1 2,-2 1,-1 1,-1 2,-2 1,0 2,0 2,0 1,0 1,0 1,0 0,0 0,0 -1,1 -1,0 -2,1 -2,2 -1,1 -1,2 -1,4l0 5c0,0 0,0 0,0 0,0 1,0 1,0 0,0 1,0 1,0 1,0 1,0 1,1 0,0 0,0 0,0 0,0 -1,0 -1,0 -1,0 -2,1 -2,2l0 5c0,1 0,1 0,1 0,0 0,1 1,1 0,0 0,0 1,0 1,0 1,0 1,0 0,0 0,1 0,1 0,0 0,0 -1,0 0,0 -1,0 -2,0 0,0 -1,0 -2,0 0,0 -1,0 -2,0 0,0 -1,0 -1,0 -1,0 -1,0 -1,0 0,0 0,-1 0,-1 0,0 0,0 1,0 0,0 1,0 1,0 0,0 1,-1 1,-1 0,0 0,0 0,-1l0 -5c0,-1 -1,-2 -2,-2 -1,0 -2,0 -2,0 0,-1 1,-1 2,-1 0,0 1,0 1,0 0,0 0,0 0,0 1,0 1,0 1,0l0 -5z"/>
 </g>
</svg>
